<svg xmlns="http://www.w3.org/2000/svg" width="1280" height="720" viewBox="0 0 1280 720"><rect width="1280" height="720" fill="#07111f"/><defs><marker id="arrow" markerWidth="12" markerHeight="12" refX="9" refY="4" orient="auto"><path d="M0,0 L0,8 L10,4 z" fill="#49627e"/></marker><filter id="shadow"><feDropShadow dx="0" dy="8" stdDeviation="10" flood-opacity=".25"/></filter></defs><text x="64" y="68" text-anchor="start" font-family="Inter,Segoe UI,Arial,sans-serif" font-size="34" font-weight="750" fill="#e5eef9">EVPN route reflection</text><text x="64" y="102" text-anchor="start" font-family="Inter,Segoe UI,Arial,sans-serif" font-size="18" font-weight="450" fill="#9fb0c5">Route reflectors distribute overlay NLRI; they are not in the VXLAN data path</text><g filter="url(#shadow)"><rect x="397.5" y="160" width="210" height="90" rx="14" fill="#152944" stroke="#a78bfa" stroke-width="3"/><text x="502.5" y="212.0" text-anchor="middle" font-family="Inter,Segoe UI,Arial,sans-serif" font-size="22" font-weight="650" fill="#e5eef9"><tspan x="502.5" dy="0">RR-1</tspan></text><rect x="672.5" y="160" width="210" height="90" rx="14" fill="#152944" stroke="#a78bfa" stroke-width="3"/><text x="777.5" y="212.0" text-anchor="middle" font-family="Inter,Segoe UI,Arial,sans-serif" font-size="22" font-weight="650" fill="#e5eef9"><tspan x="777.5" dy="0">RR-2</tspan></text><rect x="227.5" y="500" width="180" height="90" rx="14" fill="#152944" stroke="#34d399" stroke-width="3"/><text x="317.5" y="552.0" text-anchor="middle" font-family="Inter,Segoe UI,Arial,sans-serif" font-size="22" font-weight="650" fill="#e5eef9"><tspan x="317.5" dy="0">Leaf / VTEP 1</tspan></text><rect x="442.5" y="500" width="180" height="90" rx="14" fill="#152944" stroke="#34d399" stroke-width="3"/><text x="532.5" y="552.0" text-anchor="middle" font-family="Inter,Segoe UI,Arial,sans-serif" font-size="22" font-weight="650" fill="#e5eef9"><tspan x="532.5" dy="0">Leaf / VTEP 2</tspan></text><rect x="657.5" y="500" width="180" height="90" rx="14" fill="#152944" stroke="#34d399" stroke-width="3"/><text x="747.5" y="552.0" text-anchor="middle" font-family="Inter,Segoe UI,Arial,sans-serif" font-size="22" font-weight="650" fill="#e5eef9"><tspan x="747.5" dy="0">Leaf / VTEP 3</tspan></text><rect x="872.5" y="500" width="180" height="90" rx="14" fill="#152944" stroke="#34d399" stroke-width="3"/><text x="962.5" y="552.0" text-anchor="middle" font-family="Inter,Segoe UI,Arial,sans-serif" font-size="22" font-weight="650" fill="#e5eef9"><tspan x="962.5" dy="0">Leaf / VTEP 4</tspan></text><line x1="502.5" y1="250" x2="317.5" y2="500" stroke="#49627e" stroke-width="2" stroke-linecap="round" marker-end="url(#arrow)"/><line x1="502.5" y1="250" x2="532.5" y2="500" stroke="#49627e" stroke-width="2" stroke-linecap="round" marker-end="url(#arrow)"/><line x1="502.5" y1="250" x2="747.5" y2="500" stroke="#49627e" stroke-width="2" stroke-linecap="round" marker-end="url(#arrow)"/><line x1="502.5" y1="250" x2="962.5" y2="500" stroke="#49627e" stroke-width="2" stroke-linecap="round" marker-end="url(#arrow)"/><line x1="777.5" y1="250" x2="317.5" y2="500" stroke="#49627e" stroke-width="2" stroke-linecap="round" marker-end="url(#arrow)"/><line x1="777.5" y1="250" x2="532.5" y2="500" stroke="#49627e" stroke-width="2" stroke-linecap="round" marker-end="url(#arrow)"/><line x1="777.5" y1="250" x2="747.5" y2="500" stroke="#49627e" stroke-width="2" stroke-linecap="round" marker-end="url(#arrow)"/><line x1="777.5" y1="250" x2="962.5" y2="500" stroke="#49627e" stroke-width="2" stroke-linecap="round" marker-end="url(#arrow)"/></g><text x="1216" y="685" text-anchor="end" font-family="Inter,Segoe UI,Arial,sans-serif" font-size="15" font-weight="500" fill="#9fb0c5">VXLAN EVPN Architecture</text></svg>