<svg xmlns="http://www.w3.org/2000/svg" width="1280" height="720" viewBox="0 0 1280 720"><rect width="1280" height="720" fill="#07111f"/><defs><marker id="arrow" markerWidth="12" markerHeight="12" refX="9" refY="4" orient="auto"><path d="M0,0 L0,8 L10,4 z" fill="#49627e"/></marker><filter id="shadow"><feDropShadow dx="0" dy="8" stdDeviation="10" flood-opacity=".25"/></filter></defs><text x="64" y="68" text-anchor="start" font-family="Inter,Segoe UI,Arial,sans-serif" font-size="34" font-weight="750" fill="#e5eef9">VXLAN Multi-Site architecture</text><text x="64" y="102" text-anchor="start" font-family="Inter,Segoe UI,Arial,sans-serif" font-size="18" font-weight="450" fill="#9fb0c5">Border gateways terminate site-local tunnels and originate inter-site tunnels</text><g filter="url(#shadow)"><rect x="500" y="300" width="280" height="90" rx="14" fill="#152944" stroke="#fbbf24" stroke-width="3"/><text x="640.0" y="352.0" text-anchor="middle" font-family="Inter,Segoe UI,Arial,sans-serif" font-size="22" font-weight="650" fill="#e5eef9"><tspan x="640.0" dy="0">Policy boundary</tspan></text><rect x="260.0" y="160" width="210" height="90" rx="14" fill="#152944" stroke="#a78bfa" stroke-width="3"/><text x="365.0" y="212.0" text-anchor="middle" font-family="Inter,Segoe UI,Arial,sans-serif" font-size="22" font-weight="650" fill="#e5eef9"><tspan x="365.0" dy="0">Site 1 BGW pair</tspan></text><rect x="535.0" y="160" width="210" height="90" rx="14" fill="#152944" stroke="#a78bfa" stroke-width="3"/><text x="640.0" y="212.0" text-anchor="middle" font-family="Inter,Segoe UI,Arial,sans-serif" font-size="22" font-weight="650" fill="#e5eef9"><tspan x="640.0" dy="0">Inter-Site DCI</tspan></text><rect x="810.0" y="160" width="210" height="90" rx="14" fill="#152944" stroke="#a78bfa" stroke-width="3"/><text x="915.0" y="212.0" text-anchor="middle" font-family="Inter,Segoe UI,Arial,sans-serif" font-size="22" font-weight="650" fill="#e5eef9"><tspan x="915.0" dy="0">Site 2 BGW pair</tspan></text><rect x="335.0" y="500" width="180" height="90" rx="14" fill="#152944" stroke="#34d399" stroke-width="3"/><text x="425.0" y="552.0" text-anchor="middle" font-family="Inter,Segoe UI,Arial,sans-serif" font-size="22" font-weight="650" fill="#e5eef9"><tspan x="425.0" dy="0">Site 1 VTEPs</tspan></text><rect x="550.0" y="500" width="180" height="90" rx="14" fill="#152944" stroke="#34d399" stroke-width="3"/><text x="640.0" y="552.0" text-anchor="middle" font-family="Inter,Segoe UI,Arial,sans-serif" font-size="22" font-weight="650" fill="#e5eef9"><tspan x="640.0" dy="0">Selective L2/L3 VNIs</tspan></text><rect x="765.0" y="500" width="180" height="90" rx="14" fill="#152944" stroke="#34d399" stroke-width="3"/><text x="855.0" y="552.0" text-anchor="middle" font-family="Inter,Segoe UI,Arial,sans-serif" font-size="22" font-weight="650" fill="#e5eef9"><tspan x="855.0" dy="0">Site 2 VTEPs</tspan></text><line x1="365.0" y1="250" x2="610" y2="300" stroke="#49627e" stroke-width="3" stroke-linecap="round" marker-end="url(#arrow)"/><line x1="640.0" y1="250" x2="610" y2="300" stroke="#49627e" stroke-width="3" stroke-linecap="round" marker-end="url(#arrow)"/><line x1="915.0" y1="250" x2="610" y2="300" stroke="#49627e" stroke-width="3" stroke-linecap="round" marker-end="url(#arrow)"/><line x1="640" y1="390" x2="425.0" y2="500" stroke="#49627e" stroke-width="3" stroke-linecap="round" marker-end="url(#arrow)"/><line x1="640" y1="390" x2="640.0" y2="500" stroke="#49627e" stroke-width="3" stroke-linecap="round" marker-end="url(#arrow)"/><line x1="640" y1="390" x2="855.0" y2="500" stroke="#49627e" stroke-width="3" stroke-linecap="round" marker-end="url(#arrow)"/></g><text x="1216" y="685" text-anchor="end" font-family="Inter,Segoe UI,Arial,sans-serif" font-size="15" font-weight="500" fill="#9fb0c5">VXLAN EVPN Architecture</text></svg>